PathFileType	4	(X/Y/Z)	pose_F01_0-89.trc
DataRate	CameraRate	NumFrames	NumMarkers	Units	OrigDataRate	OrigDataStartFrame	OrigNumFrames
30	30	7	21	m	30	63	89
Frame#	Time	CHip			RHip			RKnee			RAnkle			RBigToe			RSmallToe			RHeel			LHip			LKnee			LAnkle			LBigToe			LSmallToe			LHeel			Neck			Nose			RShoulder			RElbow			RWrist			LShoulder			LElbow			LWrist			
		X1	Y1	Z1	X2	Y2	Z2	X3	Y3	Z3	X4	Y4	Z4	X5	Y5	Z5	X6	Y6	Z6	X7	Y7	Z7	X8	Y8	Z8	X9	Y9	Z9	X10	Y10	Z10	X11	Y11	Z11	X12	Y12	Z12	X13	Y13	Z13	X14	Y14	Z14	X15	Y15	Z15	X16	Y16	Z16	X17	Y17	Z17	X18	Y18	Z18	X19	Y19	Z19	X20	Y20	Z20	X21	Y21	Z21	
63	2.1	-0.2174954724198757	1.8743709233326498	-0.5915940284879975	-0.24015179532573414	1.8713062476416413	-0.5370289751936465	-0.22469308618669198	1.7178420171491713	-0.5013241000385902													-0.19900197979806045	1.8780877545854315	-0.645069667524844	-0.20467081172283824	1.7156770071040304	-0.6267389554659865	-0.20650506820786274	1.555124573091674	-0.6083895777840339	-0.24325279400802996	1.5148662312994656	-0.6429893176704626	-0.22651013687649632	1.5198699890918586	-0.6638944191718184	-0.2001908361831588	1.54366422652401	-0.5880135558198042	-0.22009391510137927	2.05226100482698	-0.5849199660318055	-0.22019015583098261	2.1294349231948413	-0.595497965905187	-0.2514737557490059	2.039684664037727	-0.5162565213507999	-0.2560015301554809	1.9490706360723746	-0.4908956961421613	-0.2643959463691177	1.8648469492103084	-0.4799767429784781	-0.19105920001682594	2.0626832046438444	-0.648422042957031	-0.19042266607524527	2.0285008181091637	-0.7396085880170081	-0.20835891826094435	2.152228312008672	-0.6670804731284851
64	2.1333333333333333	-0.21940787719178365	1.8727647071371498	-0.5892266424833288	-0.24002613233602865	1.8699833952924931	-0.5367938262480423	-0.22414323691588517	1.7189258286522546	-0.5019868592110162													-0.19870626032501873	1.8766854040961358	-0.6447924608542528	-0.2038797316765896	1.718330301929046	-0.6279407957373623	-0.20410297281526077	1.5565143025117978	-0.6111518502426528	-0.24400361706978405	1.516396484348903	-0.6467336788229044	-0.2262547013703454	1.5212769947694986	-0.664593743481669	-0.19710543924431767	1.5437170324832163	-0.58706112583103	-0.22007035515564805	2.052282732186481	-0.5849540348092352	-0.22003917710394932	2.1318627949104862	-0.5958215796867591	-0.2494042210277057	2.039587052536987	-0.5178263919226728	-0.2559592814727619	1.9489228592907744	-0.4909004712061292	-0.2643179508071345	1.8634181843724744	-0.47980830271172203	-0.19116115262678077	2.0613358177921706	-0.6485881407472162	-0.19042266607524527	2.0285008181091637	-0.7396085880170081	-0.2063300200968531	2.1520096654138756	-0.6692488715852353
65	2.1666666666666665	-0.21765972052606963	1.8729402392616332	-0.5914603373932049	-0.2402847220335372	1.8697782330542931	-0.5368295886383644	-0.22552024891010716	1.7126472490727664	-0.49983939437270924													-0.19904370303966165	1.8780630802145322	-0.6451188682895524	-0.20332934463446392	1.711900005814153	-0.6277557851073181	-0.2043893331163738	1.55553098380537	-0.6105373905796487	-0.24722695928293864	1.5135563798400378	-0.6476070725050105	-0.22731716892018838	1.5184518870148103	-0.6674437491403974	-0.19520361482219703	1.542345601698938	-0.5885289986090904	-0.22005731118561656	2.0523118616542715	-0.5850250241971926	-0.21922142238963754	2.1281441815502555	-0.5918853310013045	-0.24952219331726425	2.039719890309977	-0.5184938023370549	-0.25606049494248667	1.949957842363747	-0.49132098010326153	-0.26466288087946965	1.868645565857928	-0.4806411668210506	-0.18904642210376446	2.0627728850451517	-0.650608370966534	-0.19042266607524527	2.0285008181091637	-0.7396085880170081	-0.20419288612499176	2.152220331586585	-0.6713177993697648
66	2.2	-0.21955744838316898	1.874726309193277	-0.5893333243106154	-0.24017357496676037	1.871735012297115	-0.5369482987150866	-0.22424991637379577	1.7203441101501424	-0.502087423712614													-0.19885478802308987	1.8790169003816792	-0.64486496227359	-0.20403422367043503	1.7197289750705937	-0.6279591936744581	-0.20412597355570217	1.5566895553793383	-0.6112479418624566	-0.24424056968481692	1.5148330505813277	-0.6462210186837322	-0.22728849274828938	1.518563807144922	-0.6673928865872506	-0.19802447843669063	1.546157506294308	-0.5908857549665633	-0.2200089002825515	2.052494789339596	-0.5850478366248543	-0.22121002346272414	2.1293722296622413	-0.5903992117614332	-0.24955395755643925	2.03840840547393	-0.5181184058445418	-0.25499808379801775	1.9465065610238184	-0.4958209807023051	-0.26405373485512806	1.861004486740829	-0.47944784553383785	-0.18883277401282855	2.064253414427183	-0.6504847073987646	-0.19042266607524527	2.0285008181091637	-0.7396085880170081	-0.20832825689827258	2.1526306309578556	-0.6669895852200077
67	2.2333333333333334	-0.21760004159038562	1.8734810672458955	-0.5914372535113536	-0.24010264744803725	1.8714246804273333	-0.5369809893332806	-0.22526508713771423	1.7130759852239104	-0.5001076228722728													-0.19693614755010208	1.878498980698465	-0.6472562528519592	-0.20479389518453253	1.713190059834738	-0.626424862811407	-0.20626292689073272	1.5565986879077427	-0.6090120707920099	-0.24422880542611522	1.514827870548318	-0.646249529957921	-0.22726750822818229	1.5185935756479683	-0.667492579091796	-0.20012927913980275	1.5458224998708723	-0.5886187366628577	-0.21882663275076278	2.0540718284604482	-0.5899953001966805	-0.22120673558326306	2.129454626925627	-0.5903033512385365	-0.2503763753451831	2.0399259963106005	-0.5209854315886077	-0.2568557519094183	1.9498457623183463	-0.4941689123188806	-0.26390540640587923	1.866025847175215	-0.4801925365886933	-0.18758595646790746	2.0644379632171668	-0.6556930966384603	-0.19042266607524527	2.0285008181091637	-0.7396085880170081	-0.20619722996966275	2.1534858414297156	-0.6688406237936758
68	2.2666666666666666	-0.2177923970506964	1.8723055090746599	-0.5912873488286136	-0.24033408512183285	1.8679846986322242	-0.5364700474474058	-0.22541843814174004	1.7119271095251025	-0.4997899390754106													-0.19703223068959325	1.8759843201706798	-0.6469176926903293	-0.20293308210154723	1.711827244161384	-0.6282008179600153	-0.2043320907890605	1.555064726660958	-0.610565581649525	-0.24645280696265592	1.5147360150332798	-0.6440243612294146	-0.2289370532538777	1.5180957731439155	-0.6611937576992927	-0.1952861388673612	1.5425952207530407	-0.5886850589996514	-0.21891853847590292	2.0528449798087345	-0.5901417158140047	-0.21914979672318555	2.126980425253608	-0.5912480268892685	-0.24842008814099098	2.0401413155052284	-0.5232227790739967	-0.2569023953159207	1.9476195376251475	-0.4938127939778543	-0.2634294314504226	1.858972783465673	-0.4787189061591188	-0.18974574566221766	2.0630003143382667	-0.6537114404009999	-0.19042266607524527	2.0285008181091637	-0.7396085880170081	-0.20517766360384287	2.1544742151290763	-0.6659234013961083
69	2.3	-0.21739913092928081	1.8744873318682298	-0.5917288895859615	-0.2380786590897944	1.8701843025536549	-0.5389811491810698	-0.22252878624879438	1.7167690701886937	-0.5035128254177257													-0.1965900660020609	1.8779708245010867	-0.6473600466483318	-0.2022530073831074	1.716107916038709	-0.629448857350665	-0.2044259330435858	1.5553353318833738	-0.610548989980199	-0.24420254353000384	1.5148626834201244	-0.6462694220317411	-0.2272051294850139	1.5184473504768594	-0.6674664139764805	-0.20016022518580448	1.5436260873474432	-0.5879791335325643	-0.2196954390492154	2.054366842331514	-0.5932705917957848	-0.21805669751414544	2.1319798984950964	-0.5980868401046273	-0.24934121423720404	2.0407149896705046	-0.526376879553108	-0.25488623541298444	1.950327629474607	-0.4964890364916883	-0.26293136832399516	1.867061315587913	-0.48535832663136663	-0.18924424497467826	2.0647947030875464	-0.6619009829230861	-0.19042266607524527	2.0285008181091637	-0.7396085880170081	-0.20395944943194969	2.154007670411464	-0.6712227733714518
